<svg width="14" height="19" viewBox="0 0 14 19" fill="none" xmlns="http://www.w3.org/2000/svg">
<path d="M12.6866 14.031C11.3684 17.4484 8.00626 18.3402 6.50113 18.3299C3.74241 18.3299 2.32595 17.0154 1.41359 15.9485C1.02511 15.4941 -0.315249 13.632 0.0682493 10.7991C0.451748 7.96612 4.38261 2.8559 6.3001 0.654907C5.49599 6.51563 8.26399 7.75272 9.03717 7.75272C9.65572 7.75272 10.3619 6.57748 10.4444 5.83523C10.4753 5.66513 10.4691 5.66204 11.8052 8.06199C13.1412 10.462 13.0385 13.1186 12.6866 14.031Z" fill="#3601A8"/>
<path fill-rule="evenodd" clip-rule="evenodd" d="M6.37048 0.5C6.43895 0.53111 6.47886 0.603482 6.46863 0.677983C5.67194 6.48469 8.41039 7.58258 9.03718 7.58258C9.13857 7.58258 9.26218 7.53338 9.4011 7.42386C9.53816 7.31581 9.67579 7.16008 9.80136 6.97631C10.0543 6.60613 10.2379 6.15288 10.2753 5.8164C10.2757 5.8125 10.2763 5.80861 10.277 5.80475C10.2772 5.80384 10.2774 5.80264 10.2776 5.80117C10.2802 5.78646 10.2872 5.74533 10.3025 5.71218C10.3114 5.69294 10.3376 5.64299 10.3984 5.61619C10.468 5.5855 10.5306 5.6067 10.5629 5.62414C10.5931 5.64043 10.6153 5.66225 10.629 5.67683C10.6442 5.69321 10.6591 5.71205 10.6736 5.73181C10.7025 5.77138 10.7376 5.82566 10.7806 5.8963C10.9402 6.15818 11.2409 6.69845 11.818 7.73531C11.8617 7.81374 11.9069 7.895 11.9538 7.97921C12.6354 9.20365 12.9492 10.4917 13.0483 11.589C13.1469 12.6811 13.0342 13.6024 12.8453 14.0921C11.4927 17.599 8.04717 18.5103 6.50053 18.4999M1.08651 8.40396C0.63714 9.30968 0.329023 10.1408 0.236825 10.8218C-0.137765 13.589 1.17196 15.4041 1.54288 15.8379C2.43799 16.8847 3.81141 18.1597 6.50114 18.1597L6.50231 18.1597C7.96619 18.1697 11.2444 17.2974 12.5279 13.9697C12.6909 13.5471 12.8055 12.6838 12.7095 11.6196C12.6138 10.5605 12.311 9.3202 11.6566 8.14469C11.6117 8.06412 11.5684 7.98628 11.5265 7.91109C11.0111 6.98519 10.7187 6.45988 10.5502 6.17376C10.459 6.50603 10.2888 6.86596 10.0822 7.16824C9.94366 7.37106 9.7836 7.55553 9.61172 7.69103C9.44169 7.82507 9.24507 7.92278 9.03718 7.92278C8.14736 7.92278 5.49909 6.63408 6.06399 1.19155C5.12635 2.3012 3.86414 3.91268 2.7505 5.58427C2.11775 6.53403 1.53466 7.50069 1.08651 8.40396Z" fill="#3601A8"/>
<path d="M2.83052 15.7246C3.60075 17.7219 5.56532 18.243 6.4448 18.237C8.05677 18.237 8.88443 17.4688 9.41754 16.8453C9.64453 16.5798 10.4277 15.4915 10.2036 13.8358C9.97956 12.1802 7.68269 9.19366 6.56226 7.90735C7.03211 11.3325 5.41472 12.0555 4.96294 12.0555C4.60151 12.0555 4.18888 11.3686 4.14069 10.9349C4.12262 10.8354 4.12624 10.8336 3.34555 12.2362C2.56487 13.6388 2.62489 15.1914 2.83052 15.7246Z" fill="#5107F2"/>
<path fill-rule="evenodd" clip-rule="evenodd" d="M6.49182 7.75243C6.56029 7.72132 6.64106 7.73886 6.69045 7.79557C7.25451 8.44314 8.1135 9.51717 8.86058 10.6387C9.23414 11.1996 9.5814 11.7748 9.85001 12.3163C10.1174 12.8553 10.3124 13.3719 10.3721 13.813C10.6051 15.5344 9.79131 16.6697 9.54676 16.9557C8.99646 17.5994 8.12589 18.4069 6.44533 18.4071C6.44513 18.4071 6.44493 18.4071 6.44472 18.4071V18.237L6.44589 18.4071C6.4457 18.4071 6.44552 18.4071 6.44533 18.4071C5.52432 18.4131 3.47644 17.8724 2.67173 15.7858C2.55599 15.4856 2.49055 14.9352 2.54868 14.2911C2.60728 13.6419 2.79289 12.8792 3.19685 12.1534C3.22468 12.1034 3.25152 12.0552 3.27742 12.0087C3.61344 11.4049 3.78978 11.088 3.88375 10.9337C3.90919 10.892 3.93092 10.8582 3.9496 10.8327C3.95893 10.8199 3.96948 10.8064 3.98106 10.794C3.99096 10.7834 4.01014 10.7642 4.03779 10.7492C4.06757 10.7332 4.12805 10.7122 4.19602 10.7421C4.25513 10.7682 4.2799 10.8164 4.28767 10.8332C4.30151 10.8632 4.30716 10.8992 4.3079 10.9039C4.30794 10.9041 4.30796 10.9043 4.30798 10.9044C4.30868 10.9082 4.30925 10.9121 4.30968 10.916C4.32993 11.0983 4.43159 11.3523 4.57473 11.5618C4.6454 11.6653 4.72116 11.7503 4.79401 11.8078C4.86872 11.8667 4.92576 11.8853 4.96286 11.8853C5.26824 11.8853 6.85611 11.3016 6.39366 7.93041C6.38344 7.8559 6.42336 7.78353 6.49182 7.75243ZM6.7911 8.4397C7.02835 11.4564 5.52786 12.2255 4.96286 12.2255C4.81925 12.2255 4.68918 12.1583 4.58337 12.0749C4.4757 11.99 4.37751 11.8762 4.29383 11.7537C4.20069 11.6174 4.1192 11.4609 4.06076 11.3052C3.95724 11.4867 3.80232 11.7651 3.56871 12.1849C3.54468 12.228 3.51983 12.2727 3.49411 12.3189C3.11738 12.9957 2.94266 13.7107 2.8875 14.3217C2.83189 14.9379 2.89927 15.4303 2.98915 15.6634C3.72474 17.5708 5.60535 18.0726 6.44356 18.0669L6.44472 18.0669C7.9877 18.0669 8.77232 17.3381 9.28818 16.7347C9.49761 16.4897 10.2502 15.4484 10.035 13.8586C9.98266 13.4718 9.80656 12.9942 9.54525 12.4675C9.28516 11.9431 8.94616 11.3809 8.57744 10.8273C7.98423 9.93676 7.31844 9.07516 6.7911 8.4397Z" fill="#5107F2"/>
<path d="M8.26024 17.0033C7.88144 17.984 6.91526 18.2399 6.48273 18.237C5.68996 18.237 5.28291 17.8598 5.02072 17.5536C4.90909 17.4232 4.52391 16.8889 4.63411 16.0759C4.74432 15.263 5.87393 13.7965 6.42496 13.1649C6.19389 14.8467 6.98932 15.2017 7.21151 15.2017C7.38926 15.2017 7.5922 14.8645 7.6159 14.6515C7.62478 14.6027 7.62301 14.6018 8.00695 15.2905C8.39089 15.9792 8.36137 16.7415 8.26024 17.0033Z" fill="#1FC9AA"/>
<path fill-rule="evenodd" clip-rule="evenodd" d="M6.49539 13.0102C6.56382 13.0413 6.6037 13.1137 6.59347 13.1881C6.3721 14.7993 7.12018 15.0272 7.209 15.0316C7.21156 15.0308 7.22218 15.027 7.24113 15.0121C7.2681 14.9909 7.29964 14.9564 7.33108 14.9105C7.39576 14.816 7.43884 14.7045 7.44683 14.6327C7.44726 14.6288 7.44783 14.6249 7.44853 14.6211L7.44864 14.6205C7.44906 14.6182 7.4502 14.6118 7.4516 14.6056C7.45288 14.6 7.45662 14.5836 7.46514 14.5652C7.47215 14.5501 7.49599 14.5031 7.55387 14.4777C7.62053 14.4483 7.67945 14.4691 7.70739 14.4842C7.7332 14.4981 7.7502 14.5155 7.75747 14.5233C7.76641 14.5328 7.77387 14.5425 7.77954 14.5502C7.79092 14.5658 7.80311 14.5848 7.81598 14.6059C7.86313 14.6832 7.95064 14.8402 8.11452 15.1342C8.12768 15.1578 8.14134 15.1823 8.15551 15.2077C8.36112 15.5765 8.45519 15.9632 8.4849 16.2917C8.51413 16.6151 8.48244 16.9002 8.41891 17.0647C8.00556 18.1348 6.95602 18.4102 6.48212 18.4071C5.62085 18.4069 5.17092 17.9906 4.89151 17.6643C4.76231 17.5134 4.3464 16.932 4.46554 16.0531C4.49678 15.8227 4.59754 15.5591 4.73059 15.2913C4.86487 15.021 5.03776 14.7353 5.22272 14.4581C5.59257 13.9037 6.01741 13.3734 6.29677 13.0532C6.3462 12.9965 6.42695 12.979 6.49539 13.0102ZM5.03526 15.4427C4.9083 15.6982 4.82653 15.9228 4.80266 16.0988C4.70139 16.8459 5.05584 17.3332 5.14992 17.443C5.39481 17.729 5.75883 18.0669 6.48272 18.0669L6.48388 18.0669C6.8753 18.0696 7.75746 17.833 8.10156 16.9421C8.13915 16.8448 8.17279 16.6178 8.14608 16.3224C8.11983 16.0321 8.03669 15.6932 7.85836 15.3734C7.84632 15.3518 7.83466 15.3308 7.82338 15.3106C7.75773 15.1928 7.70484 15.098 7.66212 15.0217C7.64625 15.0498 7.62939 15.077 7.61184 15.1026C7.56736 15.1676 7.51337 15.2308 7.45156 15.2794C7.3916 15.3266 7.30911 15.3719 7.2115 15.3719C6.88474 15.3719 6.19852 14.9832 6.21412 13.6837C5.99024 13.9634 5.73663 14.3008 5.50572 14.6469C5.32561 14.9168 5.161 15.1896 5.03526 15.4427ZM7.78402 14.6782C7.78434 14.6767 7.7845 14.6759 7.7845 14.6758C7.78449 14.6757 7.78436 14.6762 7.78411 14.6775C7.78408 14.6777 7.78405 14.6779 7.78402 14.6782Z" fill="#1FC9AA"/>
</svg>
