<svg width="113" height="201" viewBox="0 0 113 201" fill="none" xmlns="http://www.w3.org/2000/svg">
<path d="M23.1358 110.809C22.5119 66.6557 40.9382 24.399 54.7734 2.51871C55.5377 1.30985 57.2718 1.30981 58.0364 2.5185C71.7529 24.2001 90.0618 65.8898 89.8391 109.607C89.8353 110.346 90.2304 111.02 90.8487 111.425C97.8241 115.993 109.92 130.963 111.775 160.442C111.894 162.336 109.446 163.308 108.077 161.994C102.033 156.196 92.4754 149.73 83.8485 152.075C83.2564 152.236 82.8046 152.702 82.6013 153.281C82.0412 154.876 81.4451 156.466 80.8119 158.049C80.5113 158.801 79.78 159.289 78.9704 159.289H34.0315C33.222 159.289 32.4909 158.801 32.1901 158.05C31.435 156.163 30.7324 154.267 30.0805 152.363C21.2182 149.263 11.1845 155.987 4.92332 161.994C3.55374 163.308 1.10594 162.336 1.22492 160.442C3.17046 129.467 16.3941 114.511 23.1358 110.809Z" fill="#5107F2"/>
<path d="M23.1358 110.809C22.5119 66.6557 40.9382 24.399 54.7734 2.51871C55.5377 1.30985 57.2718 1.30981 58.0364 2.5185C71.7529 24.2001 90.0618 65.8898 89.8391 109.607C89.8353 110.346 90.2304 111.02 90.8487 111.425C97.8241 115.993 109.92 130.963 111.775 160.442C111.894 162.336 109.446 163.308 108.077 161.994C102.033 156.196 92.4754 149.73 83.8485 152.075C83.2564 152.236 82.8046 152.702 82.6013 153.281C82.0412 154.876 81.4451 156.466 80.8119 158.049C80.5113 158.801 79.78 159.289 78.9704 159.289H34.0315C33.222 159.289 32.4909 158.801 32.1901 158.05C31.435 156.163 30.7324 154.267 30.0805 152.363M23.1358 110.809C16.3941 114.511 3.17046 129.467 1.22492 160.442C1.10594 162.336 3.55374 163.308 4.92332 161.994C11.1845 155.987 21.2182 149.263 30.0805 152.363M23.1358 110.809C23.1398 120.736 24.5344 142.944 30.0805 152.363" stroke="#5107F2" stroke-linecap="round" stroke-linejoin="round"/>
<path d="M1 166.214C1.55405 131.309 15.988 114.734 23.1358 110.809C23.1398 120.736 24.5344 142.944 30.0805 152.363C18.9939 148.485 6.07408 159.981 1 166.214Z" fill="#3601A8" stroke="#3601A8" stroke-linecap="round" stroke-linejoin="round"/>
<path d="M111.802 166.214C111.248 131.309 96.8143 114.734 89.6666 110.809C89.6626 120.736 88.268 142.944 82.7219 152.363C93.8085 148.485 106.728 159.981 111.802 166.214Z" fill="#3601A8" stroke="#3601A8" stroke-linecap="round" stroke-linejoin="round"/>
<mask id="mask0" mask-type="alpha" maskUnits="userSpaceOnUse" x="42" y="68" width="29" height="30">
<path d="M70.256 83.1071C70.256 90.7569 64.0546 96.9583 56.4048 96.9583C48.755 96.9583 42.5536 90.7569 42.5536 83.1071C42.5536 75.4573 48.755 69.2559 56.4048 69.2559C64.0546 69.2559 70.256 75.4573 70.256 83.1071Z" fill="#5107F2" stroke="#5107F2" stroke-linecap="round" stroke-linejoin="round"/>
</mask>
<g mask="url(#mask0)">
<circle cx="56.4048" cy="83.1071" r="15.2363" fill="#24D9B8"/>
<circle cx="0.999947" cy="119.12" r="69.2559" fill="#1FC9AA"/>
</g>
<mask id="mask1" mask-type="alpha" maskUnits="userSpaceOnUse" x="35" y="165" width="43" height="35">
<path d="M56.4047 166.214C44.93 166.214 35.6279 175.516 35.6279 186.991C35.6279 189.11 35.6279 193.964 39.6546 198.33C40.7516 199.519 42.5792 198.606 42.8305 197.008C44.4051 186.991 52.3038 186.991 56.4047 186.991C67.451 186.991 69.3943 192.57 69.9625 197.406C70.1418 198.932 71.8175 199.718 72.8861 198.614C77.1815 194.176 77.1815 189.157 77.1815 186.991C77.1815 175.516 67.8794 166.214 56.4047 166.214Z" fill="#5107F2" stroke="#5107F2" stroke-linecap="round" stroke-linejoin="round"/>
</mask>
<g mask="url(#mask1)">
<path d="M56.4047 166.214C44.93 166.214 35.6279 175.516 35.6279 186.991C35.6279 189.11 35.6279 193.964 39.6546 198.33C40.7516 199.519 42.5792 198.606 42.8305 197.008C44.4051 186.991 52.3038 186.991 56.4047 186.991C67.451 186.991 69.3943 192.57 69.9625 197.406C70.1418 198.932 71.8175 199.718 72.8861 198.614C77.1815 194.176 77.1815 189.157 77.1815 186.991C77.1815 175.516 67.8794 166.214 56.4047 166.214Z" fill="#24D9B8" stroke="#24D9B8" stroke-linecap="round" stroke-linejoin="round"/>
<circle cx="7.92561" cy="224.389" r="69.2559" fill="#1FC9AA"/>
</g>
</svg>
