<svg width="18" height="19" viewBox="0 0 18 19" fill="none" xmlns="http://www.w3.org/2000/svg">
<path d="M12.75 2H5.25C3.17893 2 1.5 3.67893 1.5 5.75V13.25C1.5 15.3211 3.17893 17 5.25 17H12.75C14.8211 17 16.5 15.3211 16.5 13.25V5.75C16.5 3.67893 14.8211 2 12.75 2Z" stroke="#333333" stroke-linecap="round" stroke-linejoin="round"/>
<path d="M12 9.02748C12.0926 9.65167 11.986 10.2891 11.6953 10.8492C11.4047 11.4093 10.9449 11.8635 10.3812 12.1472C9.8176 12.4309 9.17886 12.5297 8.55586 12.4294C7.93287 12.3292 7.35734 12.035 6.91115 11.5889C6.46496 11.1427 6.17082 10.5671 6.07058 9.94414C5.97033 9.32115 6.06907 8.6824 6.35277 8.11876C6.63646 7.55512 7.09066 7.09529 7.65076 6.80466C8.21086 6.51404 8.84834 6.40742 9.47252 6.49998C10.1092 6.5944 10.6987 6.89108 11.1538 7.34621C11.6089 7.80134 11.9056 8.39079 12 9.02748Z" stroke="#333333" stroke-linecap="round" stroke-linejoin="round"/>
<path d="M13.125 5.375H13.1333" stroke="#333333" stroke-linecap="round" stroke-linejoin="round"/>
</svg>
