<svg width="26" height="26" viewBox="0 0 26 26" fill="none" xmlns="http://www.w3.org/2000/svg">
<path d="M13 14.0834C13.5983 14.0834 14.0833 13.5984 14.0833 13.0001C14.0833 12.4018 13.5983 11.9167 13 11.9167C12.4017 11.9167 11.9166 12.4018 11.9166 13.0001C11.9166 13.5984 12.4017 14.0834 13 14.0834Z" stroke="#3601A8" stroke-width="2.5" stroke-linecap="round" stroke-linejoin="round"/>
<path d="M20.5833 14.0834C21.1816 14.0834 21.6667 13.5984 21.6667 13.0001C21.6667 12.4018 21.1816 11.9167 20.5833 11.9167C19.985 11.9167 19.5 12.4018 19.5 13.0001C19.5 13.5984 19.985 14.0834 20.5833 14.0834Z" stroke="#3601A8" stroke-width="2.5" stroke-linecap="round" stroke-linejoin="round"/>
<path d="M5.41671 14.0834C6.01502 14.0834 6.50004 13.5984 6.50004 13.0001C6.50004 12.4018 6.01502 11.9167 5.41671 11.9167C4.8184 11.9167 4.33337 12.4018 4.33337 13.0001C4.33337 13.5984 4.8184 14.0834 5.41671 14.0834Z" stroke="#3601A8" stroke-width="2.5" stroke-linecap="round" stroke-linejoin="round"/>
</svg>
