<svg width="375" height="683" viewBox="0 0 375 683" fill="none" xmlns="http://www.w3.org/2000/svg">
<path d="M354.506 437.678L348.678 454.644L363.616 464.997L346.449 459.029L336.176 473.735L342.003 456.769L327.065 446.416L344.233 452.384L354.506 437.678Z" fill="#885EE4"/>
<path d="M224.042 272.844C224.704 272.355 225.642 272.831 225.636 273.655L225.616 276.806C225.614 277.134 225.773 277.442 226.041 277.63L228.627 279.448C229.309 279.927 229.14 280.981 228.344 281.223L225.361 282.131C225.043 282.228 224.794 282.476 224.697 282.794L223.783 285.768C223.54 286.558 222.496 286.729 222.014 286.057L220.16 283.47C219.97 283.206 219.664 283.05 219.339 283.053L216.157 283.079C215.33 283.086 214.852 282.142 215.348 281.48L217.212 278.989C217.411 278.723 217.465 278.375 217.356 278.062L216.332 275.117C216.058 274.33 216.81 273.574 217.598 273.842L220.592 274.86C220.902 274.966 221.244 274.912 221.508 274.718L224.042 272.844Z" fill="white" fill-opacity="0.1"/>
<path d="M73.697 22.9079C74.3566 21.9338 75.8643 22.7002 75.466 23.8072L74.3839 26.8141C74.1884 27.3573 74.4922 27.9527 75.0467 28.1133L78.078 28.9911C79.2115 29.3193 78.9409 30.9959 77.7618 30.9509L74.6483 30.8321C74.0655 30.8099 73.5873 31.2892 73.611 31.872L73.7384 35.0098C73.7862 36.1866 72.115 36.4637 71.7804 35.3344L70.8699 32.2608C70.707 31.7109 70.1159 31.4104 69.5756 31.6028L66.5558 32.6784C65.4463 33.0736 64.6853 31.5601 65.6642 30.9052L68.2744 29.1591C68.7592 28.8348 68.8647 28.1661 68.5032 27.7083L66.5725 25.2629C65.8413 24.3367 67.0364 23.1301 67.9695 23.8524L70.4651 25.7842C70.9216 26.1376 71.5816 26.0321 71.9053 25.5541L73.697 22.9079Z" fill="#885EE4"/>
<path d="M252.628 197.11L250.272 207.718L260.385 212.06L249.462 213.005L248.529 223.843L244.134 213.819L233.444 216.175L241.651 209.035L235.977 199.653L245.445 205.264L252.628 197.11Z" fill="#B1C91F"/>
<path d="M378.726 565.039L376.37 575.648L386.483 579.99L375.56 580.935L374.627 591.773L370.232 581.749L359.542 584.105L367.749 576.964L362.075 567.582L371.543 573.194L378.726 565.039Z" fill="#B1C91F"/>
<g filter="url(#filter0_d)">
<path d="M-9.89738 358.982C-9.31682 358.553 -8.49282 358.972 -8.49746 359.694C-8.49929 359.979 -8.35859 360.249 -8.12559 360.413C-7.53931 360.825 -7.67339 361.739 -8.35895 361.948C-8.63252 362.031 -8.84698 362.245 -8.93099 362.518C-9.14124 363.203 -10.0445 363.352 -10.4615 362.77L-10.4773 362.748C-10.6438 362.516 -10.9127 362.379 -11.1984 362.382L-11.2254 362.382C-11.9411 362.388 -12.3527 361.57 -11.9239 360.997C-11.7526 360.768 -11.7059 360.468 -11.7998 360.198C-12.0352 359.522 -11.3758 358.875 -10.6974 359.105C-10.4278 359.197 -10.1264 359.152 -9.89738 358.982Z" fill="white" fill-opacity="0.1"/>
</g>
<g filter="url(#filter1_d)">
<path d="M95.637 524.81C96.2176 524.38 97.0416 524.799 97.037 525.521C97.0351 525.806 97.1758 526.077 97.4088 526.24C97.9951 526.652 97.861 527.566 97.1755 527.775C96.9019 527.858 96.6874 528.073 96.6034 528.346C96.3932 529.03 95.4899 529.179 95.0729 528.598L95.0571 528.576C94.8907 528.344 94.6217 528.207 94.336 528.209L94.309 528.209C93.5933 528.215 93.1817 527.397 93.6105 526.824C93.7819 526.595 93.8286 526.296 93.7346 526.026C93.4993 525.349 94.1586 524.702 94.837 524.933C95.1067 525.025 95.408 524.979 95.637 524.81Z" fill="white" fill-opacity="0.1"/>
</g>
<g filter="url(#filter2_d)">
<path d="M111.622 410.612C112.26 410.95 112.239 411.874 111.586 412.182C111.328 412.304 111.145 412.548 111.098 412.829C110.98 413.535 110.098 413.81 109.613 413.282C109.42 413.071 109.134 412.97 108.851 413.013C108.144 413.119 107.618 412.369 107.962 411.742L107.975 411.718C108.113 411.468 108.12 411.166 107.994 410.909L107.982 410.885C107.668 410.242 108.227 409.517 108.929 409.656C109.21 409.712 109.5 409.624 109.703 409.423C110.211 408.918 111.08 409.233 111.165 409.944C111.199 410.227 111.37 410.479 111.622 410.612Z" fill="white" fill-opacity="0.1"/>
</g>
<g filter="url(#filter3_d)">
<path d="M-19.5294 403.446C-18.8914 403.784 -18.9128 404.708 -19.5658 405.016C-19.8234 405.138 -20.0064 405.382 -20.0533 405.663C-20.1714 406.369 -21.0534 406.644 -21.538 406.116C-21.7314 405.905 -22.0173 405.804 -22.3001 405.847C-23.0078 405.953 -23.5331 405.203 -23.189 404.576L-23.176 404.552C-23.0386 404.302 -23.0316 404 -23.1572 403.743L-23.1691 403.719C-23.4838 403.076 -22.9245 402.351 -22.2224 402.49C-21.9418 402.546 -21.6516 402.458 -21.4487 402.257C-20.9401 401.752 -20.0718 402.067 -19.9865 402.778C-19.9526 403.061 -19.7811 403.313 -19.5294 403.446Z" fill="white" fill-opacity="0.1"/>
</g>
<g filter="url(#filter4_d)">
<path d="M7.73252 577.475C8.37056 577.813 8.34916 578.737 7.69617 579.045C7.43859 579.167 7.2556 579.411 7.20868 579.691C7.0906 580.398 6.2086 580.673 5.72397 580.145C5.53059 579.934 5.24468 579.833 4.96189 579.876C4.25412 579.982 3.72887 579.232 4.07299 578.605L4.086 578.581C4.22335 578.33 4.23034 578.029 4.10472 577.772L4.09283 577.748C3.77812 577.105 4.3375 576.38 5.03959 576.519C5.32012 576.575 5.61038 576.487 5.81331 576.286C6.32184 575.781 7.19021 576.096 7.27545 576.807C7.30933 577.09 7.48083 577.342 7.73252 577.475Z" fill="white" fill-opacity="0.1"/>
</g>
<g filter="url(#filter5_d)">
<path d="M-13.7631 280.099C-13.1825 279.67 -12.3585 280.089 -12.3632 280.811C-12.365 281.095 -12.2243 281.366 -11.9913 281.53C-11.405 281.942 -11.5391 282.856 -12.2247 283.064C-12.4982 283.148 -12.7127 283.362 -12.7967 283.635C-13.007 284.319 -13.9102 284.469 -14.3273 283.887L-14.343 283.865C-14.5095 283.633 -14.7784 283.496 -15.0641 283.498L-15.0911 283.499C-15.8068 283.505 -16.2184 282.687 -15.7896 282.114C-15.6183 281.885 -15.5716 281.585 -15.6655 281.315C-15.9009 280.638 -15.2416 279.991 -14.5631 280.222C-14.2935 280.314 -13.9921 280.268 -13.7631 280.099Z" fill="white" fill-opacity="0.1"/>
</g>
<g filter="url(#filter6_d)">
<path d="M2.2219 165.902C2.85994 166.24 2.83854 167.164 2.18555 167.472C1.92797 167.593 1.74498 167.837 1.69806 168.118C1.57998 168.825 0.697976 169.099 0.21335 168.571C0.0199685 168.36 -0.265943 168.26 -0.548733 168.302C-1.2565 168.408 -1.78175 167.659 -1.43763 167.031L-1.42462 167.007C-1.28727 166.757 -1.28028 166.455 -1.4059 166.199L-1.41779 166.174C-1.7325 165.532 -1.17312 164.807 -0.471026 164.946C-0.190503 165.001 0.0997638 164.914 0.302687 164.712C0.811224 164.207 1.67959 164.522 1.76483 165.234C1.79871 165.516 1.97021 165.768 2.2219 165.902Z" fill="white" fill-opacity="0.1"/>
</g>
<g filter="url(#filter7_d)">
<path d="M273.391 46.3283C273.972 45.8991 274.796 46.318 274.791 47.04C274.789 47.3248 274.93 47.5952 275.163 47.7589C275.749 48.1711 275.615 49.0849 274.93 49.2936C274.656 49.3769 274.442 49.5912 274.358 49.8645C274.147 50.5486 273.244 50.698 272.827 50.1163L272.811 50.0944C272.645 49.8622 272.376 49.7255 272.09 49.7278L272.063 49.728C271.347 49.7338 270.936 48.9161 271.365 48.3431C271.536 48.1141 271.583 47.8146 271.489 47.5445C271.253 46.8676 271.913 46.2208 272.591 46.4516C272.861 46.5433 273.162 46.4976 273.391 46.3283Z" fill="white" fill-opacity="0.1"/>
</g>
<g filter="url(#filter8_d)">
<path d="M210.219 161.486C210.8 161.057 211.624 161.476 211.619 162.198C211.617 162.483 211.758 162.753 211.991 162.917C212.577 163.329 212.443 164.243 211.758 164.452C211.484 164.535 211.269 164.749 211.185 165.022C210.975 165.707 210.072 165.856 209.655 165.274L209.639 165.252C209.473 165.02 209.204 164.883 208.918 164.886L208.891 164.886C208.175 164.892 207.764 164.074 208.193 163.501C208.364 163.272 208.411 162.973 208.317 162.702C208.081 162.026 208.741 161.379 209.419 161.61C209.689 161.701 209.99 161.656 210.219 161.486Z" fill="white" fill-opacity="0.1"/>
</g>
<g filter="url(#filter9_d)">
<path d="M378.926 212.156C379.506 211.727 380.33 212.145 380.326 212.867C380.324 213.152 380.464 213.423 380.697 213.586C381.284 213.999 381.15 214.912 380.464 215.121C380.19 215.204 379.976 215.419 379.892 215.692C379.682 216.376 378.779 216.525 378.361 215.944L378.346 215.922C378.179 215.69 377.91 215.553 377.625 215.555L377.598 215.556C376.882 215.561 376.47 214.744 376.899 214.171C377.07 213.942 377.117 213.642 377.023 213.372C376.788 212.695 377.447 212.048 378.126 212.279C378.395 212.371 378.697 212.325 378.926 212.156Z" fill="white" fill-opacity="0.1"/>
</g>
<g filter="url(#filter10_d)">
<path d="M394.91 97.9586C395.549 98.2965 395.527 99.2206 394.874 99.5286C394.617 99.6501 394.434 99.8939 394.387 100.175C394.269 100.882 393.387 101.156 392.902 100.628C392.709 100.417 392.423 100.317 392.14 100.359C391.432 100.465 390.907 99.7154 391.251 99.0878L391.264 99.0641C391.401 98.8137 391.408 98.512 391.283 98.2554L391.271 98.2312C390.956 97.5884 391.515 96.8636 392.218 97.0025C392.498 97.058 392.788 96.9706 392.991 96.7691C393.5 96.2642 394.368 96.579 394.453 97.2905C394.487 97.5733 394.659 97.8253 394.91 97.9586Z" fill="white" fill-opacity="0.1"/>
</g>
<g filter="url(#filter11_d)">
<path d="M263.759 90.7926C264.397 91.1305 264.376 92.0546 263.723 92.3626C263.465 92.4841 263.282 92.7279 263.235 93.0088C263.117 93.7156 262.235 93.9899 261.751 93.462C261.557 93.2513 261.271 93.1506 260.988 93.193C260.281 93.2993 259.755 92.5494 260.1 91.9218L260.113 91.8981C260.25 91.6477 260.257 91.346 260.131 91.0894L260.119 91.0652C259.805 90.4224 260.364 89.6976 261.066 89.8365C261.347 89.892 261.637 89.8046 261.84 89.6031C262.348 89.0982 263.217 89.413 263.302 90.1245C263.336 90.4073 263.507 90.6593 263.759 90.7926Z" fill="white" fill-opacity="0.1"/>
</g>
<g filter="url(#filter12_d)">
<path d="M291.021 264.821C291.659 265.159 291.638 266.083 290.985 266.391C290.727 266.513 290.544 266.757 290.497 267.038C290.379 267.744 289.497 268.019 289.013 267.491C288.819 267.28 288.533 267.179 288.25 267.222C287.543 267.328 287.017 266.578 287.362 265.951L287.375 265.927C287.512 265.676 287.519 265.375 287.393 265.118L287.381 265.094C287.067 264.451 287.626 263.726 288.328 263.865C288.609 263.921 288.899 263.833 289.102 263.632C289.61 263.127 290.479 263.442 290.564 264.153C290.598 264.436 290.769 264.688 291.021 264.821Z" fill="white" fill-opacity="0.1"/>
</g>
<g filter="url(#filter13_d)">
<path d="M354.002 460.321C354.582 459.892 355.406 460.311 355.402 461.033C355.4 461.318 355.541 461.588 355.774 461.752C356.36 462.164 356.226 463.078 355.54 463.287C355.267 463.37 355.052 463.584 354.968 463.857C354.758 464.542 353.855 464.691 353.438 464.109L353.422 464.087C353.255 463.855 352.986 463.718 352.701 463.721L352.674 463.721C351.958 463.727 351.546 462.909 351.975 462.336C352.147 462.107 352.193 461.807 352.099 461.537C351.864 460.861 352.523 460.214 353.202 460.444C353.471 460.536 353.773 460.491 354.002 460.321Z" fill="white" fill-opacity="0.1"/>
</g>
<g filter="url(#filter14_d)">
<path d="M290.83 575.479C291.41 575.05 292.234 575.469 292.23 576.191C292.228 576.476 292.368 576.746 292.601 576.91C293.188 577.322 293.054 578.236 292.368 578.445C292.095 578.528 291.88 578.742 291.796 579.015C291.586 579.699 290.683 579.849 290.266 579.267L290.25 579.245C290.083 579.013 289.814 578.876 289.529 578.879L289.502 578.879C288.786 578.885 288.374 578.067 288.803 577.494C288.974 577.265 289.021 576.965 288.927 576.695C288.692 576.018 289.351 575.372 290.03 575.602C290.299 575.694 290.601 575.648 290.83 575.479Z" fill="white" fill-opacity="0.1"/>
</g>
<g filter="url(#filter15_d)">
<path d="M344.37 504.785C345.008 505.123 344.986 506.047 344.333 506.355C344.076 506.477 343.893 506.721 343.846 507.002C343.728 507.709 342.846 507.983 342.361 507.455C342.168 507.244 341.882 507.143 341.599 507.186C340.891 507.292 340.366 506.542 340.71 505.915L340.723 505.891C340.861 505.641 340.868 505.339 340.742 505.082L340.73 505.058C340.415 504.415 340.975 503.691 341.677 503.829C341.957 503.885 342.248 503.797 342.451 503.596C342.959 503.091 343.827 503.406 343.913 504.117C343.947 504.4 344.118 504.652 344.37 504.785Z" fill="white" fill-opacity="0.1"/>
</g>
<g filter="url(#filter16_d)">
<path d="M371.632 678.814C372.27 679.152 372.248 680.076 371.595 680.384C371.338 680.506 371.155 680.75 371.108 681.03C370.99 681.737 370.108 682.012 369.623 681.484C369.43 681.273 369.144 681.172 368.861 681.215C368.153 681.321 367.628 680.571 367.972 679.944L367.985 679.92C368.123 679.669 368.13 679.368 368.004 679.111L367.992 679.087C367.677 678.444 368.237 677.719 368.939 677.858C369.219 677.914 369.51 677.826 369.712 677.625C370.221 677.12 371.089 677.435 371.175 678.146C371.208 678.429 371.38 678.681 371.632 678.814Z" fill="white" fill-opacity="0.1"/>
</g>
<g filter="url(#filter17_d)">
<path d="M138.245 147.667C138.826 147.238 139.65 147.657 139.645 148.379C139.644 148.664 139.784 148.934 140.017 149.098C140.604 149.51 140.469 150.424 139.784 150.633C139.51 150.716 139.296 150.93 139.212 151.204C139.002 151.888 138.098 152.037 137.681 151.455L137.666 151.433C137.499 151.201 137.23 151.064 136.944 151.067L136.917 151.067C136.202 151.073 135.79 150.255 136.219 149.682C136.39 149.453 136.437 149.154 136.343 148.883C136.108 148.207 136.767 147.56 137.445 147.791C137.715 147.882 138.016 147.837 138.245 147.667Z" fill="white" fill-opacity="0.1"/>
</g>
<g filter="url(#filter18_d)">
<path d="M154.23 33.4701C154.868 33.808 154.847 34.7321 154.194 35.0401C153.936 35.1616 153.753 35.4054 153.706 35.6863C153.588 36.3931 152.706 36.6674 152.222 36.1395C152.028 35.9288 151.742 35.8281 151.46 35.8705C150.752 35.9768 150.227 35.2269 150.571 34.5994L150.584 34.5756C150.721 34.3252 150.728 34.0235 150.603 33.767L150.591 33.7427C150.276 33.0999 150.835 32.3751 151.537 32.514C151.818 32.5695 152.108 32.4821 152.311 32.2806C152.82 31.7757 153.688 32.0905 153.773 32.802C153.807 33.0848 153.979 33.3368 154.23 33.4701Z" fill="white" fill-opacity="0.1"/>
</g>
<g filter="url(#filter19_d)">
<path d="M23.079 26.3041C23.717 26.642 23.6956 27.5661 23.0426 27.8741C22.785 27.9956 22.602 28.2394 22.5551 28.5203C22.437 29.2271 21.555 29.5014 21.0704 28.9735C20.877 28.7628 20.5911 28.6621 20.3083 28.7045C19.6006 28.8108 19.0753 28.0609 19.4194 27.4334L19.4324 27.4097C19.5698 27.1592 19.5768 26.8575 19.4512 26.601L19.4393 26.5767C19.1246 25.9339 19.6839 25.2091 20.386 25.348C20.6666 25.4035 20.9568 25.3161 21.1597 25.1146C21.6683 24.6097 22.5366 24.9245 22.6219 25.636C22.6558 25.9188 22.8273 26.1708 23.079 26.3041Z" fill="white" fill-opacity="0.1"/>
</g>
<g filter="url(#filter20_d)">
<path d="M50.3409 200.333C50.979 200.671 50.9576 201.595 50.3046 201.903C50.047 202.024 49.864 202.268 49.8171 202.549C49.699 203.256 48.817 203.53 48.3324 203.002C48.139 202.792 47.8531 202.691 47.5703 202.733C46.8625 202.84 46.3373 202.09 46.6814 201.462L46.6944 201.438C46.8318 201.188 46.8387 200.886 46.7131 200.63L46.7012 200.606C46.3865 199.963 46.9459 199.238 47.648 199.377C47.9285 199.432 48.2188 199.345 48.4217 199.143C48.9302 198.639 49.7986 198.953 49.8838 199.665C49.9177 199.948 50.0892 200.2 50.3409 200.333Z" fill="white" fill-opacity="0.1"/>
</g>
<path d="M2.73486 191.927L0.379371 202.536L10.4923 206.878L-0.431208 207.823L-1.36372 218.661L-5.75931 208.637L-16.4485 210.993L-8.24168 203.852L-13.9155 194.47L-4.44777 200.082L2.73486 191.927Z" fill="#B1C91F"/>
<g clip-path="url(#clip0)">
<path d="M383.919 293.382C367.352 304.363 362.783 326.757 373.713 343.4C384.643 360.044 406.933 364.635 423.5 353.654C440.067 342.673 444.637 320.279 433.707 303.636C422.777 286.992 400.486 282.402 383.919 293.382Z" fill="#24D9B8"/>
<path d="M383.919 293.382C367.352 304.363 362.783 326.757 373.713 343.4C384.643 360.044 406.933 364.635 423.5 353.654C440.067 342.673 444.637 320.279 433.707 303.636C422.777 286.992 400.486 282.402 383.919 293.382Z" fill="url(#paint0_linear)"/>
<path d="M368.746 330.815C368.746 330.815 346.645 342.548 359.762 346.159C372.879 349.769 425.123 338.923 446.236 326.979C453.948 322.616 463.216 313.756 438.599 313.214" stroke="#EFFF8F" stroke-width="5"/>
</g>
<defs>
<filter id="filter0_d" x="-33.8416" y="340.913" width="47.817" height="47.7438" filterUnits="userSpaceOnUse" color-interpolation-filters="sRGB">
<feFlood flood-opacity="0" result="BackgroundImageFix"/>
<feColorMatrix in="SourceAlpha" type="matrix" values="0 0 0 0 0 0 0 0 0 0 0 0 0 0 0 0 0 0 127 0"/>
<feOffset dy="4"/>
<feGaussianBlur stdDeviation="10.5"/>
<feColorMatrix type="matrix" values="0 0 0 0 0.141176 0 0 0 0 0.85098 0 0 0 0 0.721569 0 0 0 1 0"/>
<feBlend mode="normal" in2="BackgroundImageFix" result="effect1_dropShadow"/>
<feBlend mode="normal" in="SourceGraphic" in2="effect1_dropShadow" result="shape"/>
</filter>
<filter id="filter1_d" x="71.6929" y="506.741" width="47.817" height="47.7438" filterUnits="userSpaceOnUse" color-interpolation-filters="sRGB">
<feFlood flood-opacity="0" result="BackgroundImageFix"/>
<feColorMatrix in="SourceAlpha" type="matrix" values="0 0 0 0 0 0 0 0 0 0 0 0 0 0 0 0 0 0 127 0"/>
<feOffset dy="4"/>
<feGaussianBlur stdDeviation="10.5"/>
<feColorMatrix type="matrix" values="0 0 0 0 0.694247 0 0 0 0 0.7875 0 0 0 0 0.121406 0 0 0 1 0"/>
<feBlend mode="normal" in2="BackgroundImageFix" result="effect1_dropShadow"/>
<feBlend mode="normal" in="SourceGraphic" in2="effect1_dropShadow" result="shape"/>
</filter>
<filter id="filter2_d" x="86.8228" y="392.12" width="46.3158" height="46.4789" filterUnits="userSpaceOnUse" color-interpolation-filters="sRGB">
<feFlood flood-opacity="0" result="BackgroundImageFix"/>
<feColorMatrix in="SourceAlpha" type="matrix" values="0 0 0 0 0 0 0 0 0 0 0 0 0 0 0 0 0 0 127 0"/>
<feOffset dy="4"/>
<feGaussianBlur stdDeviation="10.5"/>
<feColorMatrix type="matrix" values="0 0 0 0 0.141176 0 0 0 0 0.85098 0 0 0 0 0.721569 0 0 0 1 0"/>
<feBlend mode="normal" in2="BackgroundImageFix" result="effect1_dropShadow"/>
<feBlend mode="normal" in="SourceGraphic" in2="effect1_dropShadow" result="shape"/>
</filter>
<filter id="filter3_d" x="-44.3286" y="384.954" width="46.3158" height="46.4789" filterUnits="userSpaceOnUse" color-interpolation-filters="sRGB">
<feFlood flood-opacity="0" result="BackgroundImageFix"/>
<feColorMatrix in="SourceAlpha" type="matrix" values="0 0 0 0 0 0 0 0 0 0 0 0 0 0 0 0 0 0 127 0"/>
<feOffset dy="4"/>
<feGaussianBlur stdDeviation="10.5"/>
<feColorMatrix type="matrix" values="0 0 0 0 0.94902 0 0 0 0 0.027451 0 0 0 0 0.027451 0 0 0 1 0"/>
<feBlend mode="normal" in2="BackgroundImageFix" result="effect1_dropShadow"/>
<feBlend mode="normal" in="SourceGraphic" in2="effect1_dropShadow" result="shape"/>
</filter>
<filter id="filter4_d" x="-17.0667" y="558.983" width="46.3158" height="46.4789" filterUnits="userSpaceOnUse" color-interpolation-filters="sRGB">
<feFlood flood-opacity="0" result="BackgroundImageFix"/>
<feColorMatrix in="SourceAlpha" type="matrix" values="0 0 0 0 0 0 0 0 0 0 0 0 0 0 0 0 0 0 127 0"/>
<feOffset dy="4"/>
<feGaussianBlur stdDeviation="10.5"/>
<feColorMatrix type="matrix" values="0 0 0 0 0.694247 0 0 0 0 0.7875 0 0 0 0 0.121406 0 0 0 1 0"/>
<feBlend mode="normal" in2="BackgroundImageFix" result="effect1_dropShadow"/>
<feBlend mode="normal" in="SourceGraphic" in2="effect1_dropShadow" result="shape"/>
</filter>
<filter id="filter5_d" x="-37.7073" y="262.03" width="47.817" height="47.7438" filterUnits="userSpaceOnUse" color-interpolation-filters="sRGB">
<feFlood flood-opacity="0" result="BackgroundImageFix"/>
<feColorMatrix in="SourceAlpha" type="matrix" values="0 0 0 0 0 0 0 0 0 0 0 0 0 0 0 0 0 0 127 0"/>
<feOffset dy="4"/>
<feGaussianBlur stdDeviation="10.5"/>
<feColorMatrix type="matrix" values="0 0 0 0 0.694247 0 0 0 0 0.7875 0 0 0 0 0.121406 0 0 0 1 0"/>
<feBlend mode="normal" in2="BackgroundImageFix" result="effect1_dropShadow"/>
<feBlend mode="normal" in="SourceGraphic" in2="effect1_dropShadow" result="shape"/>
</filter>
<filter id="filter6_d" x="-22.5773" y="147.41" width="46.3158" height="46.4789" filterUnits="userSpaceOnUse" color-interpolation-filters="sRGB">
<feFlood flood-opacity="0" result="BackgroundImageFix"/>
<feColorMatrix in="SourceAlpha" type="matrix" values="0 0 0 0 0 0 0 0 0 0 0 0 0 0 0 0 0 0 127 0"/>
<feOffset dy="4"/>
<feGaussianBlur stdDeviation="10.5"/>
<feColorMatrix type="matrix" values="0 0 0 0 0.141176 0 0 0 0 0.85098 0 0 0 0 0.721569 0 0 0 1 0"/>
<feBlend mode="normal" in2="BackgroundImageFix" result="effect1_dropShadow"/>
<feBlend mode="normal" in="SourceGraphic" in2="effect1_dropShadow" result="shape"/>
</filter>
<filter id="filter7_d" x="249.447" y="28.2595" width="47.817" height="47.7438" filterUnits="userSpaceOnUse" color-interpolation-filters="sRGB">
<feFlood flood-opacity="0" result="BackgroundImageFix"/>
<feColorMatrix in="SourceAlpha" type="matrix" values="0 0 0 0 0 0 0 0 0 0 0 0 0 0 0 0 0 0 127 0"/>
<feOffset dy="4"/>
<feGaussianBlur stdDeviation="10.5"/>
<feColorMatrix type="matrix" values="0 0 0 0 0.141176 0 0 0 0 0.85098 0 0 0 0 0.721569 0 0 0 1 0"/>
<feBlend mode="normal" in2="BackgroundImageFix" result="effect1_dropShadow"/>
<feBlend mode="normal" in="SourceGraphic" in2="effect1_dropShadow" result="shape"/>
</filter>
<filter id="filter8_d" x="186.275" y="143.417" width="47.817" height="47.7438" filterUnits="userSpaceOnUse" color-interpolation-filters="sRGB">
<feFlood flood-opacity="0" result="BackgroundImageFix"/>
<feColorMatrix in="SourceAlpha" type="matrix" values="0 0 0 0 0 0 0 0 0 0 0 0 0 0 0 0 0 0 127 0"/>
<feOffset dy="4"/>
<feGaussianBlur stdDeviation="10.5"/>
<feColorMatrix type="matrix" values="0 0 0 0 0.94902 0 0 0 0 0.027451 0 0 0 0 0.027451 0 0 0 1 0"/>
<feBlend mode="normal" in2="BackgroundImageFix" result="effect1_dropShadow"/>
<feBlend mode="normal" in="SourceGraphic" in2="effect1_dropShadow" result="shape"/>
</filter>
<filter id="filter9_d" x="354.981" y="194.087" width="47.817" height="47.7438" filterUnits="userSpaceOnUse" color-interpolation-filters="sRGB">
<feFlood flood-opacity="0" result="BackgroundImageFix"/>
<feColorMatrix in="SourceAlpha" type="matrix" values="0 0 0 0 0 0 0 0 0 0 0 0 0 0 0 0 0 0 127 0"/>
<feOffset dy="4"/>
<feGaussianBlur stdDeviation="10.5"/>
<feColorMatrix type="matrix" values="0 0 0 0 0.694247 0 0 0 0 0.7875 0 0 0 0 0.121406 0 0 0 1 0"/>
<feBlend mode="normal" in2="BackgroundImageFix" result="effect1_dropShadow"/>
<feBlend mode="normal" in="SourceGraphic" in2="effect1_dropShadow" result="shape"/>
</filter>
<filter id="filter10_d" x="370.111" y="79.4666" width="46.3158" height="46.4789" filterUnits="userSpaceOnUse" color-interpolation-filters="sRGB">
<feFlood flood-opacity="0" result="BackgroundImageFix"/>
<feColorMatrix in="SourceAlpha" type="matrix" values="0 0 0 0 0 0 0 0 0 0 0 0 0 0 0 0 0 0 127 0"/>
<feOffset dy="4"/>
<feGaussianBlur stdDeviation="10.5"/>
<feColorMatrix type="matrix" values="0 0 0 0 0.141176 0 0 0 0 0.85098 0 0 0 0 0.721569 0 0 0 1 0"/>
<feBlend mode="normal" in2="BackgroundImageFix" result="effect1_dropShadow"/>
<feBlend mode="normal" in="SourceGraphic" in2="effect1_dropShadow" result="shape"/>
</filter>
<filter id="filter11_d" x="238.96" y="72.3006" width="46.3158" height="46.4789" filterUnits="userSpaceOnUse" color-interpolation-filters="sRGB">
<feFlood flood-opacity="0" result="BackgroundImageFix"/>
<feColorMatrix in="SourceAlpha" type="matrix" values="0 0 0 0 0 0 0 0 0 0 0 0 0 0 0 0 0 0 127 0"/>
<feOffset dy="4"/>
<feGaussianBlur stdDeviation="10.5"/>
<feColorMatrix type="matrix" values="0 0 0 0 0.94902 0 0 0 0 0.027451 0 0 0 0 0.027451 0 0 0 1 0"/>
<feBlend mode="normal" in2="BackgroundImageFix" result="effect1_dropShadow"/>
<feBlend mode="normal" in="SourceGraphic" in2="effect1_dropShadow" result="shape"/>
</filter>
<filter id="filter12_d" x="266.222" y="246.329" width="46.3158" height="46.4789" filterUnits="userSpaceOnUse" color-interpolation-filters="sRGB">
<feFlood flood-opacity="0" result="BackgroundImageFix"/>
<feColorMatrix in="SourceAlpha" type="matrix" values="0 0 0 0 0 0 0 0 0 0 0 0 0 0 0 0 0 0 127 0"/>
<feOffset dy="4"/>
<feGaussianBlur stdDeviation="10.5"/>
<feColorMatrix type="matrix" values="0 0 0 0 0.694247 0 0 0 0 0.7875 0 0 0 0 0.121406 0 0 0 1 0"/>
<feBlend mode="normal" in2="BackgroundImageFix" result="effect1_dropShadow"/>
<feBlend mode="normal" in="SourceGraphic" in2="effect1_dropShadow" result="shape"/>
</filter>
<filter id="filter13_d" x="330.058" y="442.252" width="47.817" height="47.7438" filterUnits="userSpaceOnUse" color-interpolation-filters="sRGB">
<feFlood flood-opacity="0" result="BackgroundImageFix"/>
<feColorMatrix in="SourceAlpha" type="matrix" values="0 0 0 0 0 0 0 0 0 0 0 0 0 0 0 0 0 0 127 0"/>
<feOffset dy="4"/>
<feGaussianBlur stdDeviation="10.5"/>
<feColorMatrix type="matrix" values="0 0 0 0 0.141176 0 0 0 0 0.85098 0 0 0 0 0.721569 0 0 0 1 0"/>
<feBlend mode="normal" in2="BackgroundImageFix" result="effect1_dropShadow"/>
<feBlend mode="normal" in="SourceGraphic" in2="effect1_dropShadow" result="shape"/>
</filter>
<filter id="filter14_d" x="266.885" y="557.41" width="47.817" height="47.7438" filterUnits="userSpaceOnUse" color-interpolation-filters="sRGB">
<feFlood flood-opacity="0" result="BackgroundImageFix"/>
<feColorMatrix in="SourceAlpha" type="matrix" values="0 0 0 0 0 0 0 0 0 0 0 0 0 0 0 0 0 0 127 0"/>
<feOffset dy="4"/>
<feGaussianBlur stdDeviation="10.5"/>
<feColorMatrix type="matrix" values="0 0 0 0 0.94902 0 0 0 0 0.027451 0 0 0 0 0.027451 0 0 0 1 0"/>
<feBlend mode="normal" in2="BackgroundImageFix" result="effect1_dropShadow"/>
<feBlend mode="normal" in="SourceGraphic" in2="effect1_dropShadow" result="shape"/>
</filter>
<filter id="filter15_d" x="319.571" y="486.293" width="46.3158" height="46.4789" filterUnits="userSpaceOnUse" color-interpolation-filters="sRGB">
<feFlood flood-opacity="0" result="BackgroundImageFix"/>
<feColorMatrix in="SourceAlpha" type="matrix" values="0 0 0 0 0 0 0 0 0 0 0 0 0 0 0 0 0 0 127 0"/>
<feOffset dy="4"/>
<feGaussianBlur stdDeviation="10.5"/>
<feColorMatrix type="matrix" values="0 0 0 0 0.94902 0 0 0 0 0.027451 0 0 0 0 0.027451 0 0 0 1 0"/>
<feBlend mode="normal" in2="BackgroundImageFix" result="effect1_dropShadow"/>
<feBlend mode="normal" in="SourceGraphic" in2="effect1_dropShadow" result="shape"/>
</filter>
<filter id="filter16_d" x="346.833" y="660.322" width="46.3158" height="46.4789" filterUnits="userSpaceOnUse" color-interpolation-filters="sRGB">
<feFlood flood-opacity="0" result="BackgroundImageFix"/>
<feColorMatrix in="SourceAlpha" type="matrix" values="0 0 0 0 0 0 0 0 0 0 0 0 0 0 0 0 0 0 127 0"/>
<feOffset dy="4"/>
<feGaussianBlur stdDeviation="10.5"/>
<feColorMatrix type="matrix" values="0 0 0 0 0.694247 0 0 0 0 0.7875 0 0 0 0 0.121406 0 0 0 1 0"/>
<feBlend mode="normal" in2="BackgroundImageFix" result="effect1_dropShadow"/>
<feBlend mode="normal" in="SourceGraphic" in2="effect1_dropShadow" result="shape"/>
</filter>
<filter id="filter17_d" x="114.301" y="129.598" width="47.817" height="47.7438" filterUnits="userSpaceOnUse" color-interpolation-filters="sRGB">
<feFlood flood-opacity="0" result="BackgroundImageFix"/>
<feColorMatrix in="SourceAlpha" type="matrix" values="0 0 0 0 0 0 0 0 0 0 0 0 0 0 0 0 0 0 127 0"/>
<feOffset dy="4"/>
<feGaussianBlur stdDeviation="10.5"/>
<feColorMatrix type="matrix" values="0 0 0 0 0.694247 0 0 0 0 0.7875 0 0 0 0 0.121406 0 0 0 1 0"/>
<feBlend mode="normal" in2="BackgroundImageFix" result="effect1_dropShadow"/>
<feBlend mode="normal" in="SourceGraphic" in2="effect1_dropShadow" result="shape"/>
</filter>
<filter id="filter18_d" x="129.431" y="14.9781" width="46.3158" height="46.4789" filterUnits="userSpaceOnUse" color-interpolation-filters="sRGB">
<feFlood flood-opacity="0" result="BackgroundImageFix"/>
<feColorMatrix in="SourceAlpha" type="matrix" values="0 0 0 0 0 0 0 0 0 0 0 0 0 0 0 0 0 0 127 0"/>
<feOffset dy="4"/>
<feGaussianBlur stdDeviation="10.5"/>
<feColorMatrix type="matrix" values="0 0 0 0 0.141176 0 0 0 0 0.85098 0 0 0 0 0.721569 0 0 0 1 0"/>
<feBlend mode="normal" in2="BackgroundImageFix" result="effect1_dropShadow"/>
<feBlend mode="normal" in="SourceGraphic" in2="effect1_dropShadow" result="shape"/>
</filter>
<filter id="filter19_d" x="-1.72021" y="7.81209" width="46.3158" height="46.4789" filterUnits="userSpaceOnUse" color-interpolation-filters="sRGB">
<feFlood flood-opacity="0" result="BackgroundImageFix"/>
<feColorMatrix in="SourceAlpha" type="matrix" values="0 0 0 0 0 0 0 0 0 0 0 0 0 0 0 0 0 0 127 0"/>
<feOffset dy="4"/>
<feGaussianBlur stdDeviation="10.5"/>
<feColorMatrix type="matrix" values="0 0 0 0 0.94902 0 0 0 0 0.027451 0 0 0 0 0.027451 0 0 0 1 0"/>
<feBlend mode="normal" in2="BackgroundImageFix" result="effect1_dropShadow"/>
<feBlend mode="normal" in="SourceGraphic" in2="effect1_dropShadow" result="shape"/>
</filter>
<filter id="filter20_d" x="25.5417" y="181.841" width="46.3158" height="46.4789" filterUnits="userSpaceOnUse" color-interpolation-filters="sRGB">
<feFlood flood-opacity="0" result="BackgroundImageFix"/>
<feColorMatrix in="SourceAlpha" type="matrix" values="0 0 0 0 0 0 0 0 0 0 0 0 0 0 0 0 0 0 127 0"/>
<feOffset dy="4"/>
<feGaussianBlur stdDeviation="10.5"/>
<feColorMatrix type="matrix" values="0 0 0 0 0.694247 0 0 0 0 0.7875 0 0 0 0 0.121406 0 0 0 1 0"/>
<feBlend mode="normal" in2="BackgroundImageFix" result="effect1_dropShadow"/>
<feBlend mode="normal" in="SourceGraphic" in2="effect1_dropShadow" result="shape"/>
</filter>
<linearGradient id="paint0_linear" x1="423.5" y1="353.654" x2="383.664" y2="293.551" gradientUnits="userSpaceOnUse">
<stop stop-color="#B1C91F"/>
<stop offset="1" stop-color="#24D9B8"/>
</linearGradient>
<clipPath id="clip0">
<rect width="104.218" height="100.187" fill="white" transform="translate(353.024 273.5)"/>
</clipPath>
</defs>
</svg>
