<svg width="51" height="31" viewBox="0 0 51 31" fill="none" xmlns="http://www.w3.org/2000/svg">
<path d="M17.8443 24.803C17.7131 24.9147 17.5718 24.9858 17.4205 25.0162C17.2792 25.0467 17.143 25.0619 17.0118 25.0619H14.7264C14.5448 25.0619 14.3884 25.0314 14.2572 24.9705C14.1261 24.8995 14.0151 24.8081 13.9243 24.6965C13.8335 24.5848 13.7578 24.4579 13.6972 24.3158C13.6367 24.1737 13.5863 24.0265 13.5459 23.8743L13.2281 22.3821C13.0767 22.6968 12.8245 23.0318 12.4713 23.387C12.1181 23.7322 11.6792 24.0519 11.1546 24.3463C10.64 24.6406 10.0446 24.8842 9.36861 25.0771C8.69258 25.27 7.95601 25.3664 7.15889 25.3664C6.00863 25.3664 4.98953 25.1431 4.10161 24.6965C3.21368 24.2498 2.46197 23.6408 1.84648 22.8694C1.24108 22.0979 0.781979 21.1996 0.469187 20.1744C0.156396 19.139 0 18.0377 0 16.8703V6.89735C0 6.51162 0.0807204 6.22233 0.242161 6.02947C0.413692 5.82646 0.681078 5.72495 1.04432 5.72495H4.54052C4.97439 5.72495 5.27205 5.80108 5.43349 5.95334C5.59493 6.09545 5.67565 6.37967 5.67565 6.80599V16.7181C5.67565 17.1546 5.75637 17.5707 5.91781 17.9666C6.08934 18.3523 6.31637 18.6974 6.59889 19.002C6.88141 19.2963 7.20934 19.5298 7.58267 19.7024C7.96609 19.8749 8.3697 19.9612 8.79348 19.9612C9.15672 19.9612 9.55023 19.9003 9.97401 19.7785C10.3978 19.6567 10.7913 19.4689 11.1546 19.2151C11.5178 18.9512 11.8205 18.6162 12.0627 18.2102C12.3048 17.8042 12.4259 17.317 12.4259 16.7485V6.85167C12.4259 6.67911 12.4562 6.50655 12.5167 6.33399C12.5873 6.16143 12.6882 6.02947 12.8194 5.93811C12.9506 5.85691 13.0717 5.80108 13.1827 5.77063C13.3037 5.74018 13.4399 5.72495 13.5913 5.72495H17.0118C17.4457 5.72495 17.7585 5.83153 17.9502 6.04469C18.1419 6.25786 18.2378 6.54208 18.2378 6.89735V23.9352C18.2378 24.128 18.1924 24.3057 18.1016 24.4681C18.0208 24.6305 17.9048 24.7574 17.7534 24.8487L17.8443 24.803Z" fill="#3601A8"/>
<path d="M22.2684 5.90766C22.3996 5.796 22.5358 5.72495 22.6771 5.6945C22.8183 5.66405 22.9545 5.64882 23.0857 5.64882H25.3711C25.5628 5.64882 25.7192 5.67927 25.8403 5.74018C25.9715 5.80108 26.0774 5.88736 26.1581 5.99902C26.2389 6.10052 26.3044 6.22233 26.3549 6.36444C26.4154 6.4964 26.4709 6.64358 26.5214 6.80599L27.1571 8.64833C27.4396 8.28291 27.7221 7.91241 28.0046 7.53684C28.2972 7.15111 28.6403 6.80599 29.0338 6.50147C29.4273 6.1868 29.8965 5.92796 30.4414 5.72495C30.9862 5.52194 31.6522 5.42043 32.4392 5.42043C33.8215 5.42043 35.0929 5.67927 36.2532 6.19695C37.4237 6.70449 38.4276 7.40995 39.2651 8.31336C40.1127 9.20661 40.7736 10.2623 41.2478 11.4804C41.722 12.6883 41.9592 13.9977 41.9592 15.4086C41.9592 16.8094 41.722 18.1189 41.2478 19.3369C40.7736 20.555 40.1127 21.6157 39.2651 22.5192C38.4276 23.4124 37.4237 24.1179 36.2532 24.6356C35.0929 25.1532 33.8215 25.4121 32.4392 25.4121C31.7833 25.4121 31.2183 25.3309 30.7441 25.1685C30.2698 25.0162 29.8461 24.8132 29.4727 24.5594C29.1095 24.3057 28.7866 24.0265 28.5041 23.722C28.2216 23.4175 27.9441 23.113 27.6716 22.8084V29.9037C27.6716 30.2083 27.5808 30.4671 27.3992 30.6803C27.2176 30.8934 26.9351 31 26.5517 31H23.0857C22.9646 31 22.8335 30.9746 22.6922 30.9239C22.5509 30.8731 22.4198 30.8021 22.2987 30.7107C22.1776 30.6193 22.0767 30.5026 21.996 30.3605C21.9153 30.2286 21.8749 30.0763 21.8749 29.9037V6.77554C21.8749 6.57253 21.9102 6.40504 21.9809 6.27308C22.0616 6.14112 22.1574 6.01932 22.2684 5.90766ZM36.4046 15.4086C36.4046 14.759 36.2986 14.1449 36.0867 13.5663C35.8749 12.9776 35.5772 12.465 35.1938 12.0285C34.8104 11.592 34.3513 11.2469 33.8165 10.9931C33.2817 10.7394 32.6914 10.6125 32.0457 10.6125C31.41 10.6125 30.8046 10.7343 30.2295 10.9779C29.6644 11.2114 29.165 11.5362 28.7311 11.9524C28.3073 12.3584 27.9592 12.8405 27.6868 13.3988C27.4244 13.9571 27.2781 14.5509 27.2479 15.1803V15.4086C27.2479 16.0786 27.374 16.7079 27.6262 17.2967C27.8785 17.8854 28.2216 18.398 28.6554 18.8345C29.0893 19.2608 29.5988 19.6008 30.1841 19.8546C30.7693 20.1084 31.3898 20.2353 32.0457 20.2353C32.6914 20.2353 33.2817 20.1084 33.8165 19.8546C34.3513 19.6008 34.8104 19.2608 35.1938 18.8345C35.5772 18.398 35.8749 17.8854 36.0867 17.2967C36.2986 16.7079 36.4046 16.0786 36.4046 15.4086Z" fill="#3601A8"/>
<path d="M45.6422 0.66994C45.6422 0.223313 45.8894 0 46.3838 0H50.3189C50.7629 0 50.9849 0.223313 50.9849 0.66994V17.0835C50.9849 17.2764 50.9294 17.4388 50.8184 17.5707C50.7074 17.6925 50.5409 17.7534 50.3189 17.7534H46.3838C46.2324 17.7534 46.071 17.6925 45.8995 17.5707C45.728 17.4489 45.6422 17.2865 45.6422 17.0835V0.66994ZM45.6422 20.692C45.6422 20.489 45.6977 20.3266 45.8087 20.2048C45.9297 20.083 46.0962 20.0221 46.3081 20.0221H50.3038C50.4753 20.0221 50.6317 20.083 50.773 20.2048C50.9243 20.3266 51 20.489 51 20.692V24.3767C51 24.5594 50.9395 24.7218 50.8184 24.8639C50.6973 25.0061 50.5258 25.0771 50.3038 25.0771H46.3081C45.8642 25.0771 45.6422 24.8436 45.6422 24.3767V20.692Z" fill="#3601A8"/>
</svg>
