<svg width="163" height="99" viewBox="0 0 163 99" fill="none" xmlns="http://www.w3.org/2000/svg">
<path d="M57.352 79.184C56.936 79.536 56.488 79.76 56.008 79.856C55.56 79.952 55.128 80 54.712 80H47.464C46.888 80 46.392 79.904 45.976 79.712C45.56 79.488 45.208 79.2 44.92 78.848C44.632 78.496 44.392 78.096 44.2 77.648C44.008 77.2 43.848 76.736 43.72 76.256L42.712 71.552C42.232 72.544 41.432 73.6 40.312 74.72C39.192 75.808 37.8 76.816 36.136 77.744C34.504 78.672 32.616 79.44 30.472 80.048C28.328 80.656 25.992 80.96 23.464 80.96C19.816 80.96 16.584 80.256 13.768 78.848C10.952 77.44 8.56801 75.52 6.61601 73.088C4.69601 70.656 3.24001 67.824 2.24801 64.592C1.25601 61.328 0.76001 57.856 0.76001 54.176V22.736C0.76001 21.52 1.01601 20.608 1.52801 20C2.07201 19.36 2.92001 19.04 4.07201 19.04H15.16C16.536 19.04 17.48 19.28 17.992 19.76C18.504 20.208 18.76 21.104 18.76 22.448V53.696C18.76 55.072 19.016 56.384 19.528 57.632C20.072 58.848 20.792 59.936 21.688 60.896C22.584 61.824 23.624 62.56 24.808 63.104C26.024 63.648 27.304 63.92 28.648 63.92C29.8 63.92 31.048 63.728 32.392 63.344C33.736 62.96 34.984 62.368 36.136 61.568C37.288 60.736 38.248 59.68 39.016 58.4C39.784 57.12 40.168 55.584 40.168 53.792V22.592C40.168 22.048 40.264 21.504 40.456 20.96C40.68 20.416 41 20 41.416 19.712C41.832 19.456 42.216 19.28 42.568 19.184C42.952 19.088 43.384 19.04 43.864 19.04H54.712C56.088 19.04 57.08 19.376 57.688 20.048C58.296 20.72 58.6 21.616 58.6 22.736V76.448C58.6 77.056 58.456 77.616 58.168 78.128C57.912 78.64 57.544 79.04 57.064 79.328L57.352 79.184Z" fill="white"/>
<path d="M71.383 19.616C71.799 19.264 72.231 19.04 72.679 18.944C73.127 18.848 73.559 18.8 73.975 18.8H81.223C81.831 18.8 82.327 18.896 82.711 19.088C83.127 19.28 83.463 19.552 83.719 19.904C83.975 20.224 84.183 20.608 84.343 21.056C84.535 21.472 84.711 21.936 84.871 22.448L86.887 28.256C87.783 27.104 88.679 25.936 89.575 24.752C90.503 23.536 91.591 22.448 92.839 21.488C94.087 20.496 95.575 19.68 97.303 19.04C99.031 18.4 101.143 18.08 103.639 18.08C108.023 18.08 112.055 18.896 115.735 20.528C119.447 22.128 122.631 24.352 125.287 27.2C127.975 30.016 130.071 33.344 131.575 37.184C133.079 40.992 133.831 45.12 133.831 49.568C133.831 53.984 133.079 58.112 131.575 61.952C130.071 65.792 127.975 69.136 125.287 71.984C122.631 74.8 119.447 77.024 115.735 78.656C112.055 80.288 108.023 81.104 103.639 81.104C101.559 81.104 99.767 80.848 98.263 80.336C96.759 79.856 95.415 79.216 94.231 78.416C93.079 77.616 92.055 76.736 91.159 75.776C90.263 74.816 89.383 73.856 88.519 72.896V95.264C88.519 96.224 88.231 97.04 87.655 97.712C87.079 98.384 86.183 98.72 84.967 98.72H73.975C73.591 98.72 73.175 98.64 72.727 98.48C72.279 98.32 71.863 98.096 71.479 97.808C71.095 97.52 70.775 97.152 70.519 96.704C70.263 96.288 70.135 95.808 70.135 95.264V22.352C70.135 21.712 70.247 21.184 70.471 20.768C70.727 20.352 71.031 19.968 71.383 19.616ZM116.215 49.568C116.215 47.52 115.879 45.584 115.207 43.76C114.535 41.904 113.591 40.288 112.375 38.912C111.159 37.536 109.703 36.448 108.007 35.648C106.311 34.848 104.439 34.448 102.391 34.448C100.375 34.448 98.455 34.832 96.631 35.6C94.839 36.336 93.255 37.36 91.879 38.672C90.535 39.952 89.431 41.472 88.567 43.232C87.735 44.992 87.271 46.864 87.175 48.848V49.568C87.175 51.68 87.575 53.664 88.375 55.52C89.175 57.376 90.263 58.992 91.639 60.368C93.015 61.712 94.631 62.784 96.487 63.584C98.343 64.384 100.311 64.784 102.391 64.784C104.439 64.784 106.311 64.384 108.007 63.584C109.703 62.784 111.159 61.712 112.375 60.368C113.591 58.992 114.535 57.376 115.207 55.52C115.879 53.664 116.215 51.68 116.215 49.568Z" fill="white"/>
<path d="M145.512 3.104C145.512 1.696 146.296 0.992004 147.864 0.992004H160.344C161.752 0.992004 162.456 1.696 162.456 3.104V54.848C162.456 55.456 162.28 55.968 161.928 56.384C161.576 56.768 161.048 56.96 160.344 56.96H147.864C147.384 56.96 146.872 56.768 146.328 56.384C145.784 56 145.512 55.488 145.512 54.848V3.104ZM145.512 66.224C145.512 65.584 145.688 65.072 146.04 64.688C146.424 64.304 146.952 64.112 147.624 64.112H160.296C160.84 64.112 161.336 64.304 161.784 64.688C162.264 65.072 162.504 65.584 162.504 66.224V77.84C162.504 78.416 162.312 78.928 161.928 79.376C161.544 79.824 161 80.048 160.296 80.048H147.624C146.215 80.048 145.512 79.312 145.512 77.84V66.224Z" fill="white"/>
</svg>
